<svg xmlns="http://www.w3.org/2000/svg" viewBox="0 0 240 180">
  <rect width="240" height="180" fill="#fff8d9"/>
  <circle cx="198" cy="35" r="26" fill="#c9f2d3"/>
  <circle cx="38" cy="142" r="30" fill="#ffd9c7"/>
  <path d="M142 96c-7-20 2-40 22-48 16-6 34 2 41 18 8 19-2 39-22 47-17 7-35-1-41-17z" fill="#bfeecb"/>
  <path d="M154 55c8-13 20-18 35-16-7 13-19 19-35 16z" fill="#8fd3a6"/>
  <path d="M49 63h68l-9 70H59L49 63z" fill="#ffd1dc" stroke="#dd98ad" stroke-width="3"/>
  <path d="M65 63c3-18 35-18 38 0" fill="none" stroke="#dd98ad" stroke-width="5" stroke-linecap="round"/>
  <circle cx="78" cy="98" r="12" fill="#f9b8c9"/>
  <circle cx="101" cy="102" r="10" fill="#ffe39f"/>
  <path d="M73 84c-6-12 0-23 13-28 13 6 17 18 9 29z" fill="#aee3c0"/>
  <path d="M22 26c23 3 34 12 42 29" fill="none" stroke="#f1c27d" stroke-width="5" stroke-linecap="round"/>
  <path d="M29 24c17 5 25 13 31 28" fill="none" stroke="#f6d294" stroke-width="3" stroke-linecap="round"/>
</svg>
