<svg xmlns="http://www.w3.org/2000/svg" viewBox="0 0 240 180">
  <rect width="240" height="180" fill="#fff0f6"/>
  <circle cx="202" cy="39" r="30" fill="#ffd3e1"/>
  <circle cx="38" cy="144" r="32" fill="#ffe6bc"/>
  <path d="M120 139S62 105 62 70c0-21 16-35 35-35 11 0 19 5 23 13 5-8 13-13 24-13 19 0 35 14 35 35 0 35-59 69-59 69z" fill="#ffb8cc" stroke="#e98ca9" stroke-width="3"/>
  <path d="M44 65c18-14 36-13 51 3" fill="none" stroke="#f7d596" stroke-width="5" stroke-linecap="round"/>
  <path d="M156 117c18 4 30 14 35 31" fill="none" stroke="#b9e4d0" stroke-width="6" stroke-linecap="round"/>
  <circle cx="74" cy="128" r="5" fill="#f5b8c8"/>
  <circle cx="171" cy="49" r="5" fill="#f5d48d"/>
</svg>
